# File created by Blade
# Date/Time:  Tue Jan 27 18:09:10 2015
# Frame Rate: 120.000 fps
#------------------------------------------------------
:FULLY-SPECIFIED
:DEGREES
3978
root -1.985717 31.940663 -7.351122 4.824306 5.936423 2.918502
Spine -3.549909 -16.082474 -1.587698
Head 31.462068 10.058907 -1.074369
LeftShoulder -21.886049 20.768395 11.093730
LeftArm 22.557162 -11.740991 -43.198787
LeftForeArm 7.877776 0.000000 28.477439
LeftHand -13.474723 -0.000000 1.324952
LeftHandThumb1 -26.253704 0.000000 33.147579
RightShoulder -16.281361 -2.083377 -34.800416
RightArm 3.594936 45.440016 40.024359
RightForeArm -11.738467 -0.000000 61.450793
RightHand -18.702543 -0.000000 -3.199804
RightHandThumb1 -24.326973 -0.000000 -32.862282
LeftUpLeg -2.313365 0.936021 0.077138
LeftLeg 1.626114 -0.000000 -0.000000
LeftFoot -16.394897 16.094179 -25.377511
LeftToeBase 8.771553 -0.000000 -0.000000
RightUpLeg 0.004842 -1.135244 -2.707474
RightLeg -2.302367 -0.000000 0.000000
RightFoot -14.719965 -15.044851 10.522705
RightToeBase 5.316941 -0.000000 -0.000000
3979
root -1.991460 31.940074 -7.352350 4.831595 5.988444 2.908104
Spine -3.546505 -15.901311 -1.590696
Head 31.379698 9.853087 -1.097587
LeftShoulder -21.754808 20.741019 11.432172
LeftArm 22.297322 -12.576635 -42.251178
LeftForeArm 7.802788 -0.000000 28.329346
LeftHand -13.499943 -0.000000 1.291845
LeftHandThumb1 -26.253704 0.000000 33.147579
RightShoulder -16.180430 -2.092103 -34.865607
RightArm 4.032079 44.598224 39.866842
RightForeArm -11.934116 0.000000 59.758045
RightHand -18.684567 0.000000 -2.609905
RightHandThumb1 -24.326973 -0.000000 -32.862282
LeftUpLeg -2.335016 0.908048 0.100971
LeftLeg 1.636980 -0.000000 -0.000000
LeftFoot -16.389855 16.071997 -25.397463
LeftToeBase 8.721432 -0.000000 -0.000000
RightUpLeg -0.002878 -1.064589 -2.684540
RightLeg -2.290178 -0.000000 0.000000
RightFoot -14.748093 -15.156189 10.523204
RightToeBase 5.372900 -0.000000 -0.000000
3980
root -1.993015 31.939725 -7.350298 4.832815 6.043083 2.905053
Spine -3.548327 -15.758196 -1.583292
Head 31.304601 9.679106 -1.152155
LeftShoulder -21.665660 20.646206 11.752837
LeftArm 21.988925 -13.210474 -41.188331
LeftForeArm 7.665208 0.000000 28.130058
LeftHand -13.413673 -0.000000 1.360847
LeftHandThumb1 -26.253704 0.000000 33.147579
RightShoulder -16.210504 -1.811364 -35.003687
RightArm 4.556840 43.497522 39.719836
RightForeArm -12.430077 -0.000000 57.907830
RightHand -18.463588 0.000000 -1.947102
RightHandThumb1 -24.326973 -0.000000 -32.862282
LeftUpLeg -2.339561 0.879854 0.112513
LeftLeg 1.638227 -0.000000 -0.000000
LeftFoot -16.395051 16.041292 -25.415994
LeftToeBase 8.754148 -0.000000 -0.000000
RightUpLeg 0.007426 -1.036382 -2.677151
RightLeg -2.286695 -0.000000 0.000000
RightFoot -14.781413 -15.205384 10.558264
RightToeBase 5.392610 -0.000000 -0.000000
3981
root -1.993107 31.939379 -7.348422 4.829185 6.097695 2.906998
Spine -3.541164 -15.643734 -1.580628
Head 31.224134 9.538522 -1.199980
LeftShoulder -21.589709 20.603810 12.082892
LeftArm 21.714237 -13.900894 -40.195704
LeftForeArm 7.744446 -0.000000 27.842907
LeftHand -13.343934 -0.000000 1.280154
LeftHandThumb1 -26.253704 0.000000 33.147579
RightShoulder -16.114952 -1.535214 -35.122690
RightArm 4.898497 42.402476 39.398084
RightForeArm -12.795573 -0.000000 56.051116
RightHand -18.330316 -0.000000 -1.395811
RightHandThumb1 -24.326973 -0.000000 -32.862282
LeftUpLeg -2.338126 0.852480 0.113172
LeftLeg 1.633800 -0.000000 -0.000000
LeftFoot -16.367883 16.035088 -25.375112
LeftToeBase 8.708226 -0.000000 -0.000000
RightUpLeg 0.023027 -1.011993 -2.675869
RightLeg -2.284584 -0.000000 0.000000
RightFoot -14.790924 -15.277034 10.552855
RightToeBase 5.379439 -0.000000 -0.000000
3982
root -1.992919 31.939866 -7.346501 4.821443 6.158688 2.911021
Spine -3.532315 -15.562609 -1.577944
Head 31.145862 9.425310 -1.256927
LeftShoulder -21.535078 20.607226 12.341027
LeftArm 21.457617 -14.573938 -39.093223
LeftForeArm 7.645524 -0.000000 27.486745
LeftHand -12.996734 -0.000000 0.944536
LeftHandThumb1 -26.253704 0.000000 33.147579
RightShoulder -16.031627 -1.476891 -35.199796
RightArm 5.478127 41.429041 39.264834
RightForeArm -13.348388 -0.000000 54.190208
RightHand -18.326307 0.000000 -0.944328
RightHandThumb1 -24.326973 -0.000000 -32.862282
LeftUpLeg -2.337641 0.841355 0.109461
LeftLeg 1.641960 -0.000000 -0.000000
LeftFoot -16.344325 16.027250 -25.321929
LeftToeBase 8.722863 -0.000000 -0.000000
RightUpLeg 0.038920 -1.021272 -2.677080
RightLeg -2.271284 -0.000000 0.000000
RightFoot -14.800812 -15.321980 10.545482
RightToeBase 5.358975 -0.000000 -0.000000
3983
root -1.993230 31.939437 -7.342139 4.809477 6.212457 2.915054
Spine -3.526675 -15.470823 -1.587758
Head 31.095293 9.346775 -1.271279
LeftShoulder -21.442672 20.536566 12.710076
LeftArm 21.155317 -15.139879 -38.093281
LeftForeArm 7.526137 0.000000 27.101612
LeftHand -13.133024 -0.000000 1.237647
LeftHandThumb1 -26.253704 0.000000 33.147579
RightShoulder -15.963965 -1.380185 -35.277770
RightArm 6.070892 40.358786 39.110943
RightForeArm -14.095110 0.000000 52.244732
RightHand -18.214737 -0.000000 -0.448588
RightHandThumb1 -24.326973 -0.000000 -32.862282
LeftUpLeg -2.318115 0.802837 0.110436
LeftLeg 1.629102 -0.000000 -0.000000
LeftFoot -16.352079 16.005966 -25.355679
LeftToeBase 8.748142 -0.000000 -0.000000
RightUpLeg 0.071056 -1.028991 -2.676092
RightLeg -2.276376 -0.000000 0.000000
RightFoot -14.816556 -15.352517 10.554804
RightToeBase 5.345266 -0.000000 -0.000000
3984
root -1.993706 31.939591 -7.339629 4.799305 6.277583 2.912071
Spine -3.513496 -15.413850 -1.583872
Head 30.985804 9.232644 -1.334294
LeftShoulder -21.388342 20.499718 12.997965
LeftArm 20.850754 -15.672075 -36.962464
LeftForeArm 7.358289 -0.000000 26.668646
LeftHand -13.042970 -0.000000 1.404594
LeftHandThumb1 -26.253704 0.000000 33.147579
RightShoulder -15.920962 -0.675740 -35.554370
RightArm 6.187877 38.613950 38.630847
RightForeArm -14.827223 -0.000000 50.230427
RightHand -18.033897 -0.000000 -0.284851
RightHandThumb1 -24.326973 -0.000000 -32.862282
LeftUpLeg -2.313825 0.782561 0.117704
LeftLeg 1.633729 -0.000000 -0.000000
LeftFoot -16.318240 15.989150 -25.309849
LeftToeBase 8.687713 -0.000000 -0.000000
RightUpLeg 0.095967 -1.028058 -2.668140
RightLeg -2.275788 -0.000000 0.000000
RightFoot -14.835023 -15.411462 10.573898
RightToeBase 5.367486 -0.000000 -0.000000
3985
root -1.993866 31.938737 -7.335658 4.781023 6.337148 2.914269
Spine -3.491514 -15.337096 -1.593383
Head 30.904848 9.119346 -1.353413
LeftShoulder -21.300288 20.401538 13.373630
LeftArm 20.579325 -16.105097 -35.906893
LeftForeArm 7.253124 -0.000000 26.034365
LeftHand -13.110036 0.000000 1.596111
LeftHandThumb1 -26.253704 0.000000 33.147579
RightShoulder -15.807135 -0.812872 -35.535842
RightArm 6.864341 37.513047 38.402782
RightForeArm -15.614612 -0.000000 48.223285
RightHand -18.260757 -0.000000 -0.276849
RightHandThumb1 -24.326973 -0.000000 -32.862282
LeftUpLeg -2.294212 0.769977 0.119649
LeftLeg 1.631701 -0.000000 -0.000000
LeftFoot -16.308561 15.955792 -25.277877
LeftToeBase 8.729891 -0.000000 -0.000000
RightUpLeg 0.127025 -1.074091 -2.665141
RightLeg -2.268067 -0.000000 0.000000
RightFoot -14.846347 -15.417437 10.564715
RightToeBase 5.341994 -0.000000 -0.000000
3986
root -1.988169 31.938612 -7.327848 4.749739 6.398807 2.934254
Spine -3.466631 -15.262540 -1.605322
Head 30.835670 9.019734 -1.400818
LeftShoulder -21.205097 20.263042 13.705583
LeftArm 20.281201 -16.554359 -34.825262
LeftForeArm 7.056092 -0.000000 25.393307
LeftHand -13.210033 0.000000 1.653754
LeftHandThumb1 -26.253704 0.000000 33.147579
RightShoulder -15.730654 -0.717278 -35.608185
RightArm 7.438896 36.162338 38.083114
RightForeArm -16.710273 0.000000 46.103613
RightHand -18.552123 -0.000000 0.213406
RightHandThumb1 -24.326973 -0.000000 -32.862282
LeftUpLeg -2.243951 0.719050 0.090592
LeftLeg 1.614268 -0.000000 -0.000000
LeftFoot -16.298378 15.982328 -25.259363
LeftToeBase 8.627859 -0.000000 -0.000000
RightUpLeg 0.195993 -1.128738 -2.691026
RightLeg -2.289394 -0.000000 0.000000
RightFoot -14.843697 -15.416751 10.530548
RightToeBase 5.284089 -0.000000 -0.000000
3987
root -1.987098 31.938295 -7.324005 4.741328 6.462954 2.936120
Spine -3.462863 -15.188764 -1.617983
Head 30.788841 8.904252 -1.386476
LeftShoulder -21.119349 20.169272 14.050192
LeftArm 20.020948 -16.899559 -33.698380
LeftForeArm 6.747454 -0.000000 24.680289
LeftHand -13.149755 -0.000000 1.672641
LeftHandThumb1 -26.253704 0.000000 33.147579
RightShoulder -15.615579 -0.514514 -35.735211
RightArm 7.823623 34.602956 37.681335
RightForeArm -17.694481 -0.000000 43.929047
RightHand -18.163870 -0.000000 0.167742
RightHandThumb1 -24.326973 -0.000000 -32.862282
LeftUpLeg -2.238339 0.711069 0.089659
LeftLeg 1.617423 -0.000000 -0.000000
LeftFoot -16.277695 15.952739 -25.206120
LeftToeBase 8.686778 -0.000000 -0.000000
RightUpLeg 0.215288 -1.199779 -2.689168
RightLeg -2.274559 -0.000000 0.000000
RightFoot -14.857866 -15.398322 10.540063
RightToeBase 5.278092 -0.000000 -0.000000
